<svg width="131" height="89" viewBox="0 0 131 89" fill="none" xmlns="http://www.w3.org/2000/svg">
<path d="M130.092 46.0341C130.092 42.819 127.468 40.1945 124.253 40.1945H56.6787C57.0068 39.0135 57.138 37.8324 57.138 36.5858C57.138 28.4497 50.5118 21.8884 42.4422 21.8884H31.6828C27.3528 21.8884 23.4165 23.7912 20.7266 26.7438V6.20679C20.7266 2.99173 18.1024 0.367188 14.8877 0.367188H6.55573C3.34103 0.367188 0.716797 2.99173 0.716797 6.20679V68.1458C0.716797 71.3609 3.34103 73.9854 6.55573 73.9854H11.673V86.4519C11.673 87.5018 12.5259 88.3547 13.5756 88.3547H24.4006C25.4503 88.3547 26.3031 87.5018 26.3031 86.4519V73.9854H104.506V86.4519C104.506 87.5018 105.358 88.3547 106.408 88.3547H117.233C118.283 88.3547 119.136 87.5018 119.136 86.4519V73.9854H124.253C127.468 73.9854 130.092 71.3609 130.092 68.1458V59.8129C130.092 58.3038 129.501 56.9259 128.583 55.8761C129.501 54.8263 130.092 53.4484 130.092 51.9393V46.0341ZM31.6172 25.694H42.3766C48.4124 25.694 53.3328 30.615 53.3328 36.6514C53.3328 37.898 53.136 39.0791 52.7424 40.2601H21.3171C20.9234 39.0791 20.7266 37.898 20.7266 36.6514C20.661 30.615 25.5815 25.694 31.6172 25.694ZM22.498 84.4835H15.4125V73.9198H22.498V84.4835ZM115.396 84.4835H108.311V73.9198H115.396V84.4835ZM126.287 68.1458C126.287 69.2612 125.368 70.1798 124.253 70.1798H6.49012C5.37482 70.1798 4.45634 69.2612 4.45634 68.1458V6.20679C4.45634 5.09136 5.37482 4.17276 6.49012 4.17276H14.8221C15.9374 4.17276 16.8559 5.09136 16.8559 6.20679V55.8761C16.8559 56.9259 17.7088 57.7789 18.7585 57.7789H124.253C125.368 57.7789 126.287 58.6975 126.287 59.8129V68.1458ZM126.287 52.0049C126.287 53.1203 125.368 54.0389 124.253 54.0389H20.661V44.0657H124.253C125.368 44.0657 126.287 44.9843 126.287 46.0997V52.0049Z" fill="#3D3935"/>
</svg>
