<svg width="146" height="89" viewBox="0 0 146 89" fill="none" xmlns="http://www.w3.org/2000/svg">
<path d="M126.14 43.3427C127.19 43.3427 128.043 42.4898 128.043 41.4399C128.043 40.3901 127.19 39.5371 126.14 39.5371H113.019C111.969 39.5371 111.116 40.3901 111.116 41.4399C111.116 42.4898 111.969 43.3427 113.019 43.3427H126.14Z" fill="#3D3935"/>
<path d="M79.1005 43.3427H92.2217C92.9433 43.3427 93.5994 42.8834 93.9275 42.2929C94.2555 42.949 94.9115 43.3427 95.6332 43.3427H108.754C109.804 43.3427 110.657 42.4898 110.657 41.4399C110.657 40.3901 109.804 39.5371 108.754 39.5371H95.6332C94.9115 39.5371 94.2555 39.9964 93.9275 40.5869C93.5994 39.9308 92.9433 39.5371 92.2217 39.5371H79.1005C78.7069 39.5371 78.3788 39.6683 78.0508 39.8652C78.3132 40.915 78.5101 42.0305 78.7069 43.2115C78.8381 43.2771 78.9693 43.3427 79.1005 43.3427Z" fill="#3D3935"/>
<path d="M142.017 43.9988L142.476 43.3427H143.591C144.641 43.3427 145.494 42.4897 145.494 41.4399C145.494 40.3901 144.641 39.5371 143.591 39.5371H142.41L142.082 39.0122C138.802 34.0912 134.144 30.4168 128.83 28.3828C129.42 28.1204 130.076 27.8579 130.667 27.5954C130.798 27.5298 130.995 27.4642 131.126 27.333C131.585 27.1362 131.979 26.8737 132.438 26.6769C132.635 26.5456 132.832 26.48 132.963 26.3488C133.357 26.0863 133.75 25.8895 134.144 25.6271C134.275 25.4958 134.472 25.4302 134.603 25.299C135.128 24.9709 135.653 24.5772 136.112 24.1836C136.112 24.1836 136.112 24.1836 136.178 24.1179C136.703 23.7243 137.162 23.265 137.687 22.8057C137.818 22.6744 137.949 22.5432 138.08 22.412C138.408 22.0839 138.736 21.7559 139.064 21.4278C139.195 21.231 139.392 21.0997 139.524 20.9029C139.852 20.5748 140.114 20.1811 140.442 19.8531C140.573 19.7218 140.704 19.525 140.836 19.3938C141.229 18.8689 141.623 18.344 141.951 17.8191C141.951 17.8191 141.951 17.8191 141.951 17.7534L142.279 17.2942L142.345 17.1629H143.526C144.575 17.1629 145.428 16.31 145.428 15.2601C145.428 14.2103 144.575 13.3573 143.526 13.3573H142.345L142.148 13.0949L141.951 12.7668C137.752 6.53356 131.192 2.13746 123.778 0.759584C123.713 0.759584 123.713 0.759584 123.647 0.759584C121.941 0.431518 120.301 0.300293 118.595 0.300293H106.392H88.9413H85.4642C76.0826 0.300293 67.3569 4.95884 62.1085 12.7668L61.7148 13.3573H60.5339C59.4842 13.3573 58.6313 14.2103 58.6313 15.2601C58.6313 16.31 59.4842 17.1629 60.5339 17.1629H61.7148L62.1085 17.7534C64.9295 22.0183 68.8659 25.3646 73.4583 27.5298C73.5239 27.5298 73.5239 27.5298 73.5239 27.4642L74.0487 27.2018C76.0825 26.0863 78.6412 26.4144 80.2813 27.9891C81.0686 28.7109 81.5279 29.6295 81.7247 30.6137C82.9712 30.4168 84.1521 30.2856 85.3986 30.2856H118.464C125.943 30.2856 132.897 33.6975 137.49 39.5371H130.273C129.223 39.5371 128.371 40.3901 128.371 41.4399C128.371 42.4897 129.223 43.3427 130.273 43.3427H137.621C133.291 48.8542 126.73 52.3317 119.711 52.6597C119.317 52.5941 118.858 52.5941 118.464 52.5941H85.3986C84.9394 52.5941 84.4801 52.5941 84.1521 52.6597C82.3151 52.5941 80.5437 52.2661 78.7724 51.7412C78.6412 53.7752 78.3132 55.7436 77.9195 57.6464C79.8877 56.9902 81.9871 56.5965 84.1521 56.4653C84.5457 56.4653 84.9393 56.4653 85.333 56.4653C85.333 56.4653 85.333 56.4653 85.3986 56.4653H118.464C118.858 56.4653 119.186 56.4653 119.448 56.4653C119.514 56.4653 119.579 56.4653 119.645 56.4653C120.301 56.4653 120.891 56.5966 121.547 56.6622C121.81 56.6622 122.007 56.7278 122.269 56.7278C122.86 56.7934 123.45 56.9902 124.041 57.1215C124.303 57.1871 124.565 57.1871 124.828 57.3183C125.418 57.4495 126.009 57.712 126.534 57.9088C126.796 57.9744 127.058 58.04 127.255 58.1713C127.846 58.3681 128.436 58.6962 128.961 58.9586C129.158 59.0899 129.355 59.1555 129.617 59.2211C130.273 59.5491 130.864 59.9428 131.52 60.3365C131.651 60.4021 131.782 60.4677 131.848 60.5334C134.013 61.9768 135.981 63.7484 137.621 65.7824H78.9036C79.1004 67.0291 79.1661 68.2757 79.1661 69.588H137.621C134.21 73.9841 129.42 77.0023 124.041 78.249C124.041 78.249 124.041 78.249 123.975 78.249C122.204 78.6426 120.367 78.9051 118.464 78.9051H85.3986C83.4304 78.9051 81.4622 78.6426 79.5597 78.1833L81.0686 80.7423C81.3966 81.2672 81.5935 81.8577 81.7247 82.4482C82.9056 82.5794 84.1521 82.7107 85.3986 82.7107H118.464C127.846 82.7107 136.571 78.0521 141.82 70.2441L142.148 69.7848L142.213 69.6536H143.394C144.444 69.6536 145.297 68.8006 145.297 67.7508C145.297 66.701 144.444 65.848 143.394 65.848H142.213L142.148 65.7168L141.82 65.2575C141.229 64.4045 140.639 63.6172 139.983 62.8954C139.852 62.6986 139.72 62.5674 139.589 62.3705C138.933 61.6488 138.277 60.927 137.555 60.2053C137.555 60.2053 137.555 60.2053 137.49 60.1397C136.768 59.4835 135.981 58.8274 135.128 58.2369C134.997 58.1713 134.931 58.1057 134.865 58.0401C132.963 56.6622 130.864 55.4811 128.699 54.6282C134.144 52.4629 138.802 48.8542 142.017 43.9988ZM124.106 4.69639C129.486 5.94304 134.341 9.02687 137.752 13.3573H115.446L124.106 4.69639ZM107.245 4.04025H118.661C118.923 4.04025 119.12 4.04025 119.382 4.04025L115.84 7.58338L110.066 13.3573H97.9949L105.933 5.41814L107.245 4.04025ZM89.7942 4.04025H101.866L92.5496 13.3573H80.4782L89.7942 4.04025ZM84.4145 4.10587L76.4762 12.0451L75.0985 13.423H66.4385C70.8341 7.84583 77.3291 4.43393 84.4145 4.10587ZM80.1501 25.8239C74.7704 24.5772 69.9156 21.4934 66.5041 17.1629H75.9513H88.8101L80.1501 25.8239ZM85.5954 26.48C85.333 26.48 85.1362 26.48 84.8737 26.48L94.1898 17.1629H106.261L96.9453 26.48H85.5954ZM114.396 26.48H102.325L111.641 17.1629H123.712L114.396 26.48ZM119.842 26.4144L129.092 17.1629H137.752C135.062 20.6404 131.454 23.265 127.452 24.8397C125.025 25.7583 122.466 26.2832 119.842 26.4144Z" fill="#3D3935"/>
<path d="M54.9574 88.2884C48.0688 88.2884 41.6394 87.3042 37.1782 85.5982C32.8482 86.5168 27.8621 87.0417 23.0073 87.0417C17.9556 87.0417 14.8721 86.5168 11.5918 85.5326L7.78667 87.6322C5.75288 88.7477 3.19426 88.4196 1.55411 86.8449C-0.151646 85.2045 -0.479708 82.6456 0.7012 80.6772L3.9815 75.1657C2.14453 69.6542 2.4726 63.4209 4.83441 59.0248C2.93184 52.9884 2.53819 45.5085 3.85031 39.5376L0.7012 34.2886C-0.479708 32.2546 -0.151646 29.6956 1.55411 28.1209C3.19426 26.5462 5.75288 26.2181 7.78667 27.3336L11.1326 29.1707C15.725 27.5304 20.383 26.8087 26.3532 26.8087C33.2418 26.8087 39.6712 27.7929 44.1324 29.4988C47.4783 28.7771 52.53 28.3178 56.204 28.3178C62.1085 28.3178 66.7009 28.7771 69.85 29.5644C70.3748 29.3676 71.359 28.8427 73.524 27.596L74.0488 27.3336C76.0826 26.2181 78.6412 26.5462 80.2814 28.1209C81.9871 29.7612 82.3151 32.3202 81.1342 34.2886L77.8539 39.8001C78.7724 43.212 79.1661 47.3456 78.838 51.6761C78.6412 54.8912 78.0508 57.975 77.1979 60.7308C78.7068 63.5521 79.4285 67.3577 79.1661 71.2289C79.0349 72.8692 78.7724 74.5096 78.3132 76.0843L81.1342 80.8084C82.3151 82.8424 81.9871 85.3358 80.2814 86.9761C78.6412 88.5508 76.0826 88.8789 74.0488 87.7635L70.7029 85.9263C66.2417 87.501 61.19 88.2884 54.9574 88.2884ZM44.198 83.5642C47.4127 84.1547 51.1523 84.4828 55.0231 84.4828C61.19 84.4828 65.9136 83.6954 70.3092 81.9239C70.8341 81.727 71.4245 81.727 71.9494 81.9895L76.0826 84.2203C76.673 84.5484 77.3947 84.4172 77.9195 84.0235C78.3132 83.6298 78.4444 83.0393 78.1164 82.5144L74.8361 77.0685C74.5736 76.6092 74.508 76.0187 74.6392 75.4938C75.1641 73.9847 75.4265 72.4099 75.5577 70.7696C75.8202 67.2921 75.0985 64.0114 73.7208 61.7806C73.3927 61.3213 73.3271 60.7308 73.524 60.1402C74.4424 57.5157 75.0329 54.4319 75.2297 51.2824C75.4921 47.0832 75.0985 43.0808 74.1144 39.9969C73.9176 39.472 74.0488 38.9471 74.3112 38.4222L78.0507 32.1889C78.3132 31.7297 78.2476 31.0735 77.8539 30.6798C77.3947 30.2206 76.6074 30.1549 76.017 30.483L75.5577 30.8111C71.8182 32.9107 70.8997 33.3044 70.178 33.3044C69.9812 33.3044 69.7188 33.3044 69.522 33.2388C66.7665 32.3858 62.2397 31.9921 56.3352 31.9921C54.7606 31.9921 52.7924 32.1233 50.9555 32.2546C52.3988 32.9107 53.6453 33.5012 54.2358 33.8293C55.1542 34.3542 55.4167 35.5352 54.8918 36.4538C54.367 37.3724 53.186 37.6349 52.2676 37.11C51.2179 36.4538 46.2318 34.2886 43.2796 33.0419C39.2776 31.4016 33.045 30.483 26.4844 30.483C20.5798 30.483 16.1842 31.2048 11.7886 32.9107C11.2638 33.1075 10.6734 33.0419 10.2141 32.7795L6.08095 30.5486C5.49049 30.2205 4.70318 30.3518 4.24393 30.7455C3.78469 31.1391 3.71909 31.7297 4.04712 32.2546L7.58986 38.1598C7.85228 38.6191 7.91788 39.0783 7.78667 39.6033C6.40894 45.1148 6.737 52.5947 8.63958 58.3031C9.42685 59.3529 10.6733 60.862 13.3632 61.9118C14.3473 62.3055 14.8065 63.3553 14.4785 64.3395C14.0849 65.3237 12.9696 65.783 12.0511 65.4549C10.0173 64.6676 8.57397 63.6177 7.45867 62.6335C6.40897 65.8486 6.27775 70.3759 7.91791 74.6408C8.11472 75.1657 8.04909 75.8218 7.78667 76.2811L4.04712 82.58C3.7847 83.0393 3.8503 83.6954 4.24393 84.0891C4.70318 84.5484 5.49049 84.614 6.08095 84.286L10.6077 81.7926C11.067 81.5302 11.5918 81.4646 12.1167 81.6614C15.397 82.7112 18.1524 83.2361 23.1385 83.2361C27.9277 83.2361 32.8482 82.7112 36.9814 81.7926C44.5917 80.0211 47.544 77.7902 50.365 75.625C51.2179 74.9689 52.3988 75.1657 53.0548 76.0187C53.7109 76.8716 53.5141 78.0527 52.6612 78.7088C50.4962 80.2835 48.2 82.0551 44.198 83.5642ZM22.2856 61.1901C22.0232 61.1901 21.6952 61.1244 21.4327 60.9932C20.5143 60.5339 20.1206 59.3529 20.5799 58.4343C24.3194 51.0856 33.6354 43.8681 46.1662 44.393C47.2159 44.4587 48.0032 45.3116 48.0032 46.3614C47.9376 47.4112 47.1503 48.1986 46.1006 48.1986H46.035C35.2756 47.7393 27.2061 53.8414 23.9914 60.1402C23.6633 60.7964 23.0073 61.1901 22.2856 61.1901Z" fill="#3D3935"/>
</svg>
