<svg width="83" height="112" viewBox="0 0 83 112" fill="none" xmlns="http://www.w3.org/2000/svg">
<path d="M54.5924 65.6465C53.6739 65.1216 52.493 65.4497 52.0338 66.3682L40.356 87.4958C39.8311 88.4143 40.1591 89.5954 41.0776 90.0547C41.34 90.1859 41.6681 90.3171 41.9961 90.3171C42.6522 90.3171 43.3082 89.9891 43.6362 89.333L55.3141 68.2054C55.8389 67.3525 55.5109 66.1714 54.5924 65.6465Z" fill="#3D3935"/>
<path d="M57.7415 43.0103C56.823 42.4854 55.6421 42.8134 55.1829 43.732L38.1909 74.4391C37.6661 75.3576 37.9941 76.5387 38.9126 76.998C39.175 77.1292 39.503 77.2604 39.8311 77.2604C40.4871 77.2604 41.1432 76.9324 41.4712 76.2762L58.4631 45.5692C58.988 44.6506 58.66 43.5352 57.7415 43.0103Z" fill="#3D3935"/>
<path d="M41.996 8.36523C23.5607 8.36523 8.60254 29.8208 8.60254 56.1974C8.60254 82.574 23.5607 104.03 41.996 104.03C60.4313 104.03 75.3894 82.574 75.3894 56.1974C75.3894 29.8208 60.3657 8.36523 41.996 8.36523ZM41.996 100.29C25.6601 100.29 12.4077 80.54 12.4077 56.1974C12.4077 31.9204 25.6601 12.1052 41.996 12.1052C58.3319 12.1052 71.5843 31.8548 71.5843 56.1974C71.5843 80.54 58.2663 100.29 41.996 100.29Z" fill="#3D3935"/>
<path d="M41.996 0.754883C19.0339 0.754883 0.992188 25.0974 0.992188 56.1982C0.992188 87.2989 18.9683 111.641 41.996 111.641C64.9582 111.641 82.9999 87.2989 82.9999 56.1982C82.9999 25.0974 64.9582 0.754883 41.996 0.754883ZM41.996 107.901C21.1333 107.901 4.79736 85.1993 4.79736 56.2638C4.79736 27.3283 21.1333 4.62607 41.996 4.62607C62.8588 4.62607 79.1947 27.3283 79.1947 56.2638C79.1291 85.1993 62.7932 107.901 41.996 107.901Z" fill="#3D3935"/>
</svg>
