<svg width="145" height="112" viewBox="0 0 145 112" fill="none" xmlns="http://www.w3.org/2000/svg">
<path d="M140.04 0.698242C137.854 0.698242 135.987 2.1329 135.348 4.09891H124.949H78.3395H66.6605H20.0515H9.65244C9.0125 2.1329 7.146 0.698242 4.95954 0.698242C2.23979 0.698242 0 2.92993 0 5.63984C0 8.34975 2.23979 10.5814 4.95954 10.5814C7.146 10.5814 9.0125 9.14675 9.65244 7.18074H18.505V28.86V98.5206V110.157C18.505 111.007 19.1982 111.698 20.0515 111.698H124.949C125.802 111.698 126.495 111.007 126.495 110.157V98.5206V28.86V7.18074H135.348C135.987 9.14675 137.854 10.5814 140.04 10.5814C142.76 10.5814 145 8.34975 145 5.63984C145 2.92993 142.76 0.698242 140.04 0.698242ZM5.01287 7.49958C3.99963 7.49958 3.14637 6.64942 3.14637 5.63984C3.14637 4.63027 3.99963 3.78007 5.01287 3.78007C6.02611 3.78007 6.87936 4.63027 6.87936 5.63984C6.87936 6.64942 6.02611 7.49958 5.01287 7.49958ZM21.598 28.86V7.18074H30.1839V69.5087C30.1839 70.3588 30.8772 71.0496 31.7304 71.0496C32.5837 71.0496 33.2769 70.3588 33.2769 69.5087V7.18074H41.8628V86.9371C41.8628 87.7873 42.5561 88.478 43.4093 88.478C44.2626 88.478 44.9559 87.7873 44.9559 86.9371V7.18074H53.5417V69.5087C53.5417 70.3588 54.235 71.0496 55.0883 71.0496C55.9415 71.0496 56.6348 70.3588 56.6348 69.5087V7.18074H65.2207V96.714C63.6208 96.0764 62.5009 94.5355 62.5009 92.7289C62.5009 88.6906 59.1945 85.3962 55.1416 85.3962C51.0886 85.3962 47.7823 88.6906 47.7823 92.7289C47.7823 95.0668 45.8625 96.9797 43.516 96.9797C41.1695 96.9797 39.2497 95.0668 39.2497 92.7289C39.2497 88.6906 35.9434 85.3962 31.8904 85.3962C27.8374 85.3962 24.5311 88.6906 24.5311 92.7289C24.5311 94.5355 23.4112 96.0764 21.8113 96.714V28.86H21.598ZM123.402 108.616H21.598V105.906H123.402V108.616ZM123.402 102.825H21.598V99.9022C24.9044 99.2114 27.4108 96.2358 27.4108 92.7289C27.4108 90.3909 29.3306 88.478 31.6771 88.478C34.0235 88.478 35.9434 90.3909 35.9434 92.7289C35.9434 96.7672 39.2497 100.062 43.3027 100.062C47.3556 100.062 50.662 96.7672 50.662 92.7289C50.662 90.3909 52.5818 88.478 54.9283 88.478C57.2747 88.478 59.1946 90.3909 59.1946 92.7289C59.1946 96.7672 62.5009 100.062 66.5539 100.062C67.4071 100.062 68.1004 99.3708 68.1004 98.5206V7.12763H76.6863V98.5206C76.6863 99.3708 77.3795 100.062 78.2328 100.062C82.2858 100.062 85.5921 96.7672 85.5921 92.7289C85.5921 90.3909 87.5119 88.478 89.8584 88.478C92.2048 88.478 94.1247 90.3909 94.1247 92.7289C94.1247 96.7672 97.431 100.062 101.484 100.062C105.537 100.062 108.843 96.7672 108.843 92.7289C108.843 90.3909 110.763 88.478 113.11 88.478C115.456 88.478 117.376 90.3909 117.376 92.7289C117.376 96.2358 119.882 99.1583 123.189 99.9022V102.825H123.402ZM123.402 28.86V96.714C121.802 96.0764 120.682 94.5355 120.682 92.7289C120.682 88.6906 117.376 85.3962 113.323 85.3962C109.27 85.3962 105.964 88.6906 105.964 92.7289C105.964 95.0668 104.044 96.9797 101.697 96.9797C99.3509 96.9797 97.4311 95.0668 97.4311 92.7289C97.4311 88.6906 94.1247 85.3962 90.0717 85.3962C86.0188 85.3962 82.7124 88.6906 82.7124 92.7289C82.7124 94.5355 81.5925 96.0764 79.9927 96.714V7.18074H88.5785V69.5087C88.5785 70.3588 89.2718 71.0496 90.125 71.0496C90.9783 71.0496 91.6716 70.3588 91.6716 69.5087V7.18074H100.257V86.9371C100.257 87.7873 100.951 88.478 101.804 88.478C102.657 88.478 103.35 87.7873 103.35 86.9371V7.18074H111.776V69.5087C111.776 70.3588 112.47 71.0496 113.323 71.0496C114.176 71.0496 114.869 70.3588 114.869 69.5087V7.18074H123.455V28.86H123.402ZM140.04 7.49958C139.027 7.49958 138.174 6.64942 138.174 5.63984C138.174 4.63027 139.027 3.78007 140.04 3.78007C141.054 3.78007 141.907 4.63027 141.907 5.63984C141.907 6.64942 141.054 7.49958 140.04 7.49958Z" fill="#3D3935"/>
</svg>
