<svg width="158" height="137" viewBox="0 0 158 137" fill="none" xmlns="http://www.w3.org/2000/svg">
<path d="M152.731 70.3308C152.731 70.2652 152.731 70.1996 152.731 70.134V19.6116C152.731 8.98227 144.071 0.321289 133.443 0.321289C123.667 0.321289 115.598 7.6044 114.286 17.0527C106.151 13.9689 96.769 17.1839 92.3078 24.9263C92.0454 25.3856 91.9797 25.9105 92.1109 26.3698C92.2421 26.8291 92.5702 27.2884 92.9638 27.5509L120.912 43.6918C121.371 43.9542 121.896 44.0199 122.355 43.8886C122.815 43.7574 123.274 43.4293 123.536 43.0356C128.325 34.7683 125.767 24.2702 117.96 19.0211C118.353 10.8195 125.111 4.19251 133.443 4.19251C141.971 4.19251 148.926 11.1475 148.926 19.6773V70.134H7.87282C4.00206 70.134 0.853027 73.2834 0.853027 77.1546C0.853027 80.3041 2.95238 82.9942 5.83905 83.8472V96.8386C5.83905 112.455 15.4175 125.971 29.326 132.27H11.5467C10.497 132.27 9.64421 133.123 9.64421 134.173C9.64421 135.222 10.497 136.075 11.5467 136.075H147.089C148.138 136.075 148.991 135.222 148.991 134.173C148.991 133.123 148.138 132.27 147.089 132.27H129.31C143.152 125.971 152.796 112.455 152.796 96.8386V83.8472C155.683 82.9942 157.783 80.3041 157.783 77.1546C157.717 73.874 155.618 71.1838 152.731 70.3308ZM121.109 39.2957L96.7034 25.1888C100.968 19.6116 108.84 17.9713 115.073 21.5801C121.306 25.1232 123.733 32.7999 121.109 39.2957ZM34.4433 73.8083H62.3258V96.5762H34.4433V73.8083ZM34.4433 100.447H62.3258V107.534H34.4433V100.447ZM4.65819 77.0234C4.65819 75.2518 6.10146 73.8083 7.87282 73.8083H30.6381V80.2384H7.87282C6.10146 80.304 4.65819 78.8605 4.65819 77.0234ZM148.926 96.773C148.926 116.326 132.196 132.204 111.662 132.204H46.974C26.4394 132.204 9.70978 116.326 9.70978 96.773V84.044H30.7037V98.4134V98.479V98.5446V109.305C30.7037 110.355 31.5566 111.208 32.6063 111.208H64.294C65.3437 111.208 66.1966 110.355 66.1966 109.305V98.5446V98.479V98.4134V84.044H148.991V96.773H148.926ZM150.697 80.304H66.131V73.874H150.697C152.468 73.874 153.912 75.3174 153.912 77.089C153.912 78.8606 152.468 80.304 150.697 80.304Z" fill="#3D3935"/>
</svg>
