<svg width="92" height="105" viewBox="0 0 92 105" fill="none" xmlns="http://www.w3.org/2000/svg">
<path d="M34.3455 17.6406H57.3076C58.3573 17.6406 59.2101 16.7876 59.2101 15.7378C59.2101 14.6879 58.3573 13.835 57.3076 13.835H34.3455C33.2958 13.835 32.4429 14.6879 32.4429 15.7378C32.4429 16.7876 33.2958 17.6406 34.3455 17.6406Z" fill="#3D3935"/>
<path d="M80.2695 18.4272H74.1025C72.9872 15.3434 71.1502 12.5876 68.7228 10.4224L62.2278 4.45155C58.9475 1.49895 53.7646 0.121094 45.8263 0.121094C44.8422 0.121094 43.9237 0.121108 43.0709 0.186721C43.0053 0.186721 42.9397 0.186721 42.8741 0.186721C42.0868 0.252335 41.2995 0.252327 40.5778 0.383553C40.381 0.383553 40.2498 0.449131 40.053 0.449131C39.4625 0.514744 38.8721 0.580363 38.2816 0.71159C38.1504 0.71159 38.0192 0.777218 37.8224 0.777218C37.2319 0.908444 36.7071 0.974078 36.1822 1.1053C35.9854 1.17092 35.8542 1.23651 35.6574 1.23651C35.1981 1.36774 34.7389 1.49895 34.3453 1.63017C34.1484 1.69579 34.0172 1.76144 33.8204 1.82706C33.4268 1.95828 33.0331 2.15512 32.6395 2.28635C32.5083 2.35196 32.3771 2.41753 32.1802 2.54876C31.7866 2.7456 31.4586 2.94246 31.1306 3.1393C30.9994 3.20492 30.8681 3.33615 30.8025 3.40176C30.4745 3.5986 30.1465 3.86106 29.884 4.12351L22.9954 9.9631C20.3055 12.2596 18.2718 15.1466 17.0909 18.4272H11.4488C5.3474 18.4272 0.361328 23.4138 0.361328 29.5159V93.817C0.361328 95.3261 0.68934 96.7696 1.21419 98.1475C2.91995 102.15 6.85634 104.906 11.4488 104.906H50.4187H50.4843C50.4843 104.906 50.4843 104.906 50.5499 104.906H61.9654C61.9654 104.906 61.9654 104.906 62.031 104.906H62.0966H80.4007C86.502 104.906 91.4881 99.919 91.4881 93.817V84.6311V29.5159C91.3569 23.4138 86.3709 18.4272 80.2695 18.4272ZM62.8839 30.6313C63.2119 29.6471 63.4743 28.7285 63.8023 27.81C63.868 27.5475 63.9992 27.2194 64.0648 26.9569C64.3928 25.8415 64.6553 24.7261 64.9177 23.6763C64.9833 23.4794 64.9833 23.3482 65.0489 23.217C65.2457 22.364 65.4425 21.511 65.5737 20.6581C65.6393 20.3956 65.7049 20.1332 65.7049 19.8051C65.8361 19.0178 65.9674 18.2304 66.033 17.5087C66.033 17.3774 66.0986 17.1806 66.0986 17.0494C66.1642 16.1964 66.2298 15.409 66.2298 14.6216C66.2298 14.4248 66.2298 14.2279 66.2298 14.0311C66.2298 13.703 66.2298 13.375 66.2298 13.1125L66.361 13.1781C68.5916 15.2122 70.2317 17.8367 71.0846 20.7893C71.1502 21.0518 71.2158 21.3142 71.2814 21.6423C71.347 21.8391 71.4127 22.0359 71.4127 22.2328C71.4783 22.4952 71.4782 22.7577 71.5439 23.0202C71.5439 23.217 71.6095 23.4794 71.6095 23.6763C71.6095 23.8731 71.6095 24.07 71.6751 24.2668C71.6751 24.5293 71.7407 24.7917 71.7407 25.0542C71.7407 25.1854 71.7407 25.3166 71.7407 25.4479C71.7407 25.7759 71.7407 26.1696 71.7407 26.4977V26.5633C71.6095 28.4005 71.1502 30.2376 70.3629 32.0092L51.534 74.3955L48.0569 66.5874L50.0907 62.4538C50.9436 60.551 51.7308 58.7138 52.5837 56.9423C52.7805 56.483 52.9774 56.0237 53.1742 55.5644C53.8303 54.1209 54.4207 52.6774 55.0112 51.3651C55.1424 51.0371 55.3392 50.6434 55.4704 50.3153C56.1921 48.6094 56.8481 47.0346 57.5042 45.4599C57.6354 45.1975 57.701 44.935 57.8322 44.6726C58.3571 43.3603 58.8819 42.1137 59.3411 40.867C59.4723 40.4733 59.6692 40.0797 59.8004 39.7516C60.3252 38.3737 60.8501 37.0614 61.3093 35.8147C61.3093 35.7491 61.375 35.6836 61.375 35.5523C61.8998 34.2401 62.2934 32.9278 62.7527 31.6811C62.6215 31.2874 62.7527 30.9594 62.8839 30.6313ZM29.4248 14.8185C29.4248 14.3592 29.4248 13.9655 29.4248 13.5062C29.4248 13.3094 29.4904 13.1125 29.4904 12.9157C29.556 12.3908 29.6216 11.9315 29.6872 11.4722C29.6872 11.4066 29.7528 11.2753 29.7528 11.2097C29.8841 10.6848 30.0153 10.1599 30.2121 9.70064C30.6713 8.65083 31.3274 7.73222 32.1802 7.01047C33.0987 6.22311 34.2796 5.63263 35.723 5.10773C35.7886 5.10773 35.7886 5.0421 35.8542 5.0421C36.1166 4.97648 36.4446 4.91087 36.7071 4.77964C36.9695 4.71403 37.1663 4.64842 37.4287 4.58281C37.4944 4.58281 37.6256 4.58279 37.6912 4.51718C38.216 4.38595 38.6753 4.32032 39.2657 4.18909C39.2657 4.18909 39.2657 4.18909 39.3313 4.18909C41.2339 3.92664 43.3989 3.7298 45.8263 3.7298C51.7309 3.7298 55.864 4.58281 58.4883 6.22314C58.5539 6.22314 58.5539 6.28872 58.6195 6.28872C58.7507 6.35433 58.8163 6.48556 58.9475 6.55118C59.2099 6.74802 59.4068 6.87926 59.6692 7.0761C59.9972 7.33855 60.2596 7.73224 60.522 8.06031C60.5877 8.19153 60.7189 8.25715 60.7845 8.32277C61.0469 8.71645 61.2437 9.11013 61.4405 9.50381C61.5061 9.63504 61.5718 9.70062 61.6374 9.83185C61.8342 10.2911 61.9654 10.8161 62.0966 11.341C62.0966 11.4066 62.1622 11.5378 62.1622 11.6034C62.2934 12.1283 62.359 12.7188 62.359 13.375C62.359 13.4406 62.359 13.5718 62.4246 13.6374C62.4246 14.228 62.4246 14.9497 62.4246 15.6059C62.4246 15.7371 62.4246 15.8027 62.4246 15.9339C62.359 16.59 62.2934 17.2462 62.2278 17.9679C62.2278 18.1648 62.2278 18.296 62.1622 18.4928C62.0966 19.1489 61.8998 19.8051 61.7686 20.5269C61.703 20.7893 61.703 21.0518 61.6374 21.3798C61.5062 22.036 61.3093 22.6921 61.1125 23.4138C61.0469 23.8075 60.9157 24.1356 60.8501 24.5293C60.7189 25.1198 60.522 25.7103 60.3252 26.3665C60.194 26.8914 59.9972 27.4163 59.866 28.0068C59.7348 28.3349 59.6036 28.7285 59.4724 29.1222C56.7825 37.3239 52.3869 47.7564 46.548 60.6822L45.9575 61.9289L45.5639 61.0103C45.5639 60.9447 45.4983 60.8135 45.4983 60.7479C44.6454 58.7795 43.7925 56.9423 42.9396 55.1051C35.7886 38.9642 31.1962 27.0882 29.9497 18.8865C29.9497 18.6897 29.884 18.4928 29.884 18.3616C29.8184 17.7711 29.7528 17.3118 29.7528 16.7213C29.7528 16.3932 29.6872 16.0651 29.6872 15.7371C29.3592 15.4746 29.4248 15.1465 29.4248 14.8185ZM19.6495 24.1356C19.6495 24.0043 19.6495 23.8731 19.6495 23.6763C19.6495 23.4138 19.7151 23.217 19.7807 22.9545C19.8463 22.6921 19.8463 22.4952 19.9119 22.2328C19.9119 22.1015 19.9775 21.9703 19.9775 21.8391C20.0431 21.511 20.1087 21.1174 20.2399 20.7893C20.2399 20.7893 20.2399 20.7893 20.2399 20.7237C21.0928 17.6399 22.9298 14.8841 25.3572 12.7845L25.6196 12.522C25.6196 12.8501 25.5541 13.1781 25.5541 13.5718C25.5541 13.7687 25.5541 13.9655 25.5541 14.1624C25.5541 14.9497 25.554 15.7371 25.6196 16.5901C25.6196 16.7869 25.6853 16.9837 25.6853 17.1806C25.7509 17.9023 25.8165 18.6241 25.9477 19.3458C26.0133 19.6083 26.0133 19.9363 26.0789 20.1988C26.2101 21.0518 26.4069 21.9047 26.6037 22.7577C26.6693 22.8889 26.6694 23.0201 26.6694 23.217C26.9318 24.2668 27.1942 25.3167 27.5222 26.4321C27.5878 26.7601 27.719 27.0882 27.7846 27.4162C28.0471 28.2692 28.3095 29.1878 28.6375 30.1064C28.7687 30.4345 28.8343 30.7625 28.9656 31.1562C29.3592 32.4029 29.8184 33.6495 30.2777 34.9618C30.3433 35.1586 30.4089 35.3555 30.5401 35.6179C30.9337 36.799 31.393 37.98 31.8522 39.161C32.0491 39.6203 32.1802 40.014 32.3771 40.4733C32.8363 41.5888 33.2955 42.7698 33.8204 44.0164C33.9516 44.3445 34.0829 44.6726 34.2141 45.0663C34.8701 46.5754 35.5262 48.1501 36.1822 49.7904C36.379 50.2497 36.5758 50.7746 36.8383 51.2339C37.3631 52.4806 37.888 53.7272 38.4784 55.0395C38.7408 55.63 39.0033 56.2205 39.2657 56.8111C39.9218 58.3858 40.6434 59.9605 41.3651 61.5352C41.4307 61.7321 41.5619 61.9289 41.6275 62.1914C41.6275 62.257 41.6931 62.3882 41.6931 62.4538L49.4347 79.8414L50.6811 82.7284H43.3989L20.896 32.0748C20.5024 31.2218 20.1743 30.3032 19.9775 29.3847C19.8463 28.991 19.7807 28.5973 19.7151 28.2036C19.7151 28.138 19.7151 28.0724 19.6495 28.0068C19.5839 27.5475 19.5183 27.1538 19.5183 26.6945V26.6289C19.5183 26.2352 19.4527 25.8415 19.5183 25.4479C19.5183 25.3823 19.5183 25.3166 19.5183 25.1854C19.5839 24.7917 19.6495 24.4636 19.6495 24.1356ZM4.10087 29.5159C4.10087 25.5134 7.38118 22.2328 11.3831 22.2328H16.0412C15.5163 25.5791 15.8444 28.9254 17.0253 32.1404C17.2221 32.6653 17.3533 33.1246 17.5501 33.6495L39.3969 82.7284H4.16649V29.5159H4.10087ZM11.3831 101.1C9.28375 101.1 7.38119 100.182 6.06907 98.8036C5.2818 97.9507 4.69133 96.9008 4.3633 95.7198H45.1046L47.5321 101.1H11.3831ZM51.6652 101.1L49.2378 95.7198H56.5857L59.0131 101.1H51.6652ZM80.2695 101.1H63.1463L60.7189 95.7198H87.2893C86.4364 98.8036 83.6154 101.1 80.2695 101.1ZM87.5517 91.9142H57.8322H57.7666C57.7666 91.9142 57.7666 91.9142 57.701 91.9142H46.2855C46.2855 91.9142 46.2855 91.9142 46.2199 91.9142H46.1544H3.96968V86.534H42.0868H42.1524C42.1524 86.534 42.1523 86.534 42.218 86.534H53.5678C53.5678 86.534 53.5678 86.534 53.6334 86.534H53.699H87.4861V91.9142H87.5517ZM87.5517 82.7284H54.9455L53.3054 79.0539L73.5121 33.5839C74.1025 32.206 74.5617 30.7625 74.8242 29.2534C75.2834 26.9569 75.4147 24.5949 75.021 22.2328H80.2038C84.2058 22.2328 87.4861 25.5134 87.4861 29.5159V82.7284H87.5517Z" fill="#3D3935"/>
</svg>
