<svg width="124" height="86" viewBox="0 0 124 86" fill="none" xmlns="http://www.w3.org/2000/svg">
<path d="M18.5542 0.553711C17.5045 0.553711 16.6517 1.40669 16.6517 2.4565V18.7286C16.6517 21.55 14.8147 23.9121 12.3217 24.6994V2.4565C12.3217 1.40669 11.4688 0.553711 10.4191 0.553711C9.36938 0.553711 8.5165 1.40669 8.5165 2.4565V24.6994C6.02347 23.9121 4.1865 21.55 4.1865 18.7286V2.4565C4.1865 1.40669 3.33363 0.553711 2.28393 0.553711C1.23423 0.553711 0.381348 1.40669 0.381348 2.4565V18.7286C0.381348 23.6496 3.92407 27.7177 8.5165 28.5706V83.8827C8.5165 84.9325 9.36938 85.7855 10.4191 85.7855C11.4688 85.7855 12.3217 84.9325 12.3217 83.8827V28.5706C16.9797 27.6521 20.4568 23.584 20.4568 18.7286V2.4565C20.4568 1.40669 19.6039 0.553711 18.5542 0.553711Z" fill="#3D3935"/>
<path d="M62.0512 3.24316C40.0076 3.24316 22.0972 21.1556 22.0972 43.2017C22.0972 65.2478 40.0076 83.1603 62.0512 83.1603C84.0948 83.1603 102.005 65.2478 102.005 43.2017C102.005 21.1556 84.0948 3.24316 62.0512 3.24316ZM98.0689 46.0231C98.0033 46.6136 97.9377 47.2041 97.8721 47.729C97.8065 48.3196 97.6753 48.9757 97.6097 49.5662C97.4785 50.1567 97.4129 50.6816 97.2817 51.2722C97.1504 51.8627 97.0192 52.4532 96.8224 53.0437C96.6912 53.5686 96.4944 54.1591 96.3632 54.684C96.1664 55.2746 95.9695 55.7995 95.7727 56.39C95.5759 56.9149 95.3791 57.4398 95.1167 57.9647C94.8542 58.4896 94.5918 59.0801 94.3294 59.605C94.067 60.0643 93.8045 60.5893 93.5421 61.0485C93.2797 61.5735 92.9517 62.0984 92.6236 62.5577C92.3612 63.017 92.0332 63.4762 91.7052 63.9355C91.3771 64.3948 90.9835 64.9197 90.6555 65.379C90.3274 65.8383 89.9994 66.232 89.6714 66.6257C89.2777 67.085 88.8841 67.5442 88.4904 67.9379C88.0968 68.3316 87.7688 68.7253 87.3752 69.119C86.9159 69.5127 86.4567 69.9064 86.063 70.3657C85.6694 70.6938 85.2758 71.0874 84.8821 71.4154C84.4229 71.8091 83.898 72.1373 83.4388 72.5309C82.9796 72.859 82.5859 73.1871 82.1267 73.4495C81.6018 73.7776 81.077 74.1056 80.5521 74.4337C80.0929 74.6961 79.6336 74.9586 79.1744 75.221C78.584 75.5491 78.0591 75.746 77.4687 76.074C77.0094 76.2709 76.5502 76.5334 76.0909 76.7302C75.5005 76.9926 74.8444 77.1894 74.254 77.3863C73.7947 77.5831 73.3355 77.7143 72.8106 77.9112C72.1546 78.108 71.4329 78.2393 70.7768 78.4361C70.3176 78.5673 69.8583 78.6986 69.3991 78.7642C68.6118 78.8954 67.8246 79.0267 67.1029 79.0923C66.7093 79.1579 66.3156 79.2235 65.922 79.2891C64.7411 79.4203 63.4946 79.4859 62.3137 79.4859C61.0671 79.4859 59.8862 79.4203 58.7053 79.2891C58.3117 79.2235 57.9181 79.1579 57.5244 79.0923C56.7372 78.9611 55.9499 78.8954 55.2282 78.7642C54.769 78.6986 54.3097 78.5017 53.8505 78.4361C53.1944 78.2393 52.4728 78.108 51.8167 77.9112C51.3575 77.78 50.8326 77.5831 50.3734 77.3863C49.7829 77.1894 49.1269 76.9926 48.5364 76.7302C48.0772 76.5334 47.6179 76.2709 47.0931 76.074C46.5026 75.8116 45.9778 75.5491 45.3873 75.221C44.9281 74.9586 44.4688 74.6961 44.0096 74.4337C43.4847 74.1056 42.9599 73.8432 42.435 73.4495C41.9758 73.1215 41.5822 72.7934 41.1229 72.5309C40.6637 72.2029 40.1388 71.8092 39.6796 71.4811C39.2859 71.153 38.8267 70.7593 38.4331 70.4313C37.9738 70.0376 37.5146 69.644 37.121 69.2503C36.7273 68.8566 36.3337 68.4629 36.0056 68.0692C35.612 67.6099 35.2184 67.2162 34.8247 66.7569C34.4967 66.3633 34.1031 65.904 33.775 65.4447C33.447 64.9854 33.0534 64.5261 32.7253 64.0668C32.3973 63.6075 32.0693 63.1482 31.8069 62.6233C31.4788 62.164 31.2164 61.6391 30.8884 61.1142C30.626 60.5893 30.3635 60.13 30.1011 59.605C29.8387 59.0801 29.5763 58.5552 29.3794 58.0303C29.117 57.5054 28.9202 56.9805 28.7234 56.4556C28.5266 55.9307 28.3297 55.4058 28.1329 54.8153C27.9361 54.2904 27.8049 53.6999 27.6081 53.1093C27.4769 52.5188 27.28 51.9939 27.1488 51.4034C27.0176 50.8129 26.8864 50.2224 26.8208 49.6318C26.6896 49.0413 26.624 48.4508 26.5584 47.8602C26.4928 47.2697 26.4272 46.6792 26.3616 46.0231C26.3616 45.7606 26.3616 45.4326 26.296 45.1701H28.9202L61.0015 77.1894C61.3952 77.5831 61.8544 77.7144 62.3137 77.7144C62.7729 77.7144 63.2978 77.5175 63.6258 77.1894L95.6415 45.1701H98.2658C98.0689 45.4326 98.0689 45.695 98.0689 46.0231ZM32.1349 43.2017L62.0512 13.282L91.9676 43.2017L62.0512 73.1214L32.1349 43.2017ZM91.6396 22.5335C91.9676 22.9928 92.23 23.4521 92.558 23.9114C92.8861 24.4363 93.2141 24.8956 93.4765 25.4205C93.7389 25.8798 94.0014 26.4047 94.2638 26.864C94.5262 27.3889 94.7886 27.9138 95.051 28.5043C95.2479 29.0292 95.5103 29.5541 95.7071 30.079C95.9039 30.6039 96.1664 31.1945 96.2976 31.785C96.4944 32.3099 96.6256 32.8348 96.7568 33.4253C96.9536 34.0158 97.0848 34.6064 97.2161 35.1969C97.3473 35.7218 97.4785 36.3123 97.5441 36.9028C97.6753 37.4933 97.7409 38.0839 97.8065 38.74C97.8721 39.3305 97.9377 39.921 98.0033 40.4459C98.0033 40.774 98.0033 41.0365 98.0689 41.3645H95.4447L63.429 9.27958C63.1009 8.95152 62.5761 8.75466 62.1169 8.75466C61.592 8.75466 61.1328 8.95152 60.8047 9.27958L28.7234 41.3645H26.0991C26.0991 41.1021 26.0991 40.774 26.1647 40.5116C26.2304 39.9211 26.296 39.3305 26.3616 38.6744C26.4272 38.0839 26.5584 37.4933 26.624 36.9028C26.7552 36.3123 26.8208 35.7218 26.952 35.1313C27.0832 34.5408 27.2144 34.0158 27.4113 33.4253C27.5425 32.8348 27.7393 32.3099 27.9361 31.7194C28.1329 31.1944 28.3297 30.6039 28.5266 30.079C28.7234 29.5541 28.9202 29.0292 29.1826 28.5043C29.445 27.9794 29.6419 27.4545 29.9043 26.9296C30.1667 26.4047 30.4291 25.8798 30.6916 25.4205C30.954 24.8956 31.282 24.4363 31.61 23.977C31.9381 23.5177 32.2005 22.9928 32.5285 22.5335C32.8566 22.0742 33.1846 21.6149 33.5782 21.1556C33.9062 20.6963 34.2343 20.237 34.6279 19.8433C35.0216 19.3841 35.4152 18.9904 35.8088 18.5967C36.2025 18.203 36.5961 17.7437 36.9897 17.3501C37.3834 16.9564 37.8426 16.5627 38.3019 16.169C38.6955 15.7753 39.1547 15.4472 39.5484 15.0535C40.0076 14.6599 40.4669 14.3318 40.9261 14.0038C41.3853 13.6757 41.8446 13.3476 42.3038 13.0195C42.7631 12.6915 43.2879 12.429 43.8128 12.101C44.272 11.8385 44.7969 11.5105 45.2561 11.248C45.7809 10.9856 46.3058 10.7231 46.8306 10.4606C47.3555 10.1982 47.8147 10.0013 48.3396 9.73888C48.8644 9.47642 49.4549 9.34521 50.0453 9.08275C50.5702 8.88591 51.095 8.68906 51.6199 8.55783C52.2103 8.36099 52.8008 8.22977 53.3912 8.09854C53.9161 7.96731 54.4409 7.8361 55.0314 7.70488C55.6875 7.57365 56.3435 7.50802 56.934 7.37679C57.4588 7.31118 57.9837 7.17994 58.5085 7.11433C59.2958 7.04872 60.1487 7.04874 60.9359 6.98313C61.3296 6.98313 61.7232 6.9175 62.1169 6.9175C62.5105 6.9175 62.9041 6.98313 63.2978 6.98313C64.085 6.98313 64.9379 7.04872 65.7252 7.11433C66.25 7.17994 66.7749 7.24556 67.2997 7.37679C67.9558 7.4424 68.6118 7.57365 69.2023 7.70488C69.7271 7.8361 70.252 7.96731 70.8424 8.09854C71.4329 8.22977 72.0233 8.36099 72.6794 8.55783C73.2042 8.68906 73.7291 8.95153 74.254 9.08275C74.8444 9.27959 75.4348 9.47642 75.9597 9.73888C76.4845 9.93572 76.9438 10.1982 77.4687 10.4606C77.9935 10.7231 78.584 10.9856 79.1088 11.248C79.5681 11.5105 80.0929 11.7729 80.5521 12.101C81.077 12.429 81.6018 12.6915 82.0611 13.0195C82.5203 13.3476 82.9795 13.6757 83.3732 14.0038C83.8324 14.3318 84.3573 14.7255 84.8165 15.0535C85.2758 15.3816 85.6694 15.7753 86.063 16.1034C86.5223 16.4971 86.9159 16.8907 87.3752 17.2844C87.7688 17.6781 88.1624 18.0718 88.4904 18.4655C88.8841 18.9248 89.2777 19.3184 89.6714 19.7777C89.9994 20.1714 90.3274 20.6307 90.7211 21.09C90.9835 21.6149 91.3115 22.0742 91.6396 22.5335Z" fill="#3D3935"/>
<path d="M122.671 0.750455C122.015 0.422388 121.227 0.487993 120.703 0.947287C120.243 1.27535 109.09 9.8707 109.09 26.9302C109.09 27.98 109.156 28.8985 109.222 29.8171C109.222 30.0796 109.287 30.342 109.287 30.6045C109.353 31.2606 109.418 31.8511 109.55 32.4417C109.615 32.7041 109.615 32.9666 109.681 33.1634C109.812 33.8195 110.009 34.4757 110.206 35.0662C110.206 35.1318 110.271 35.263 110.271 35.3287C110.468 35.9848 110.73 36.6409 110.993 37.2315C111.058 37.4283 111.124 37.5595 111.255 37.6907C111.452 38.0844 111.649 38.4781 111.911 38.8718C111.977 39.003 112.108 39.1998 112.174 39.3311C112.436 39.7248 112.699 40.0528 112.961 40.3809C113.027 40.4465 113.092 40.5777 113.158 40.6433C113.486 41.037 113.814 41.4307 114.208 41.7588C114.273 41.8244 114.404 41.9556 114.47 42.0212C114.732 42.2836 114.995 42.4805 115.257 42.6774C115.389 42.743 115.52 42.8742 115.585 42.9398C115.848 43.1366 116.11 43.3335 116.438 43.4647C116.504 43.5303 116.635 43.596 116.701 43.596C117.029 43.7928 117.422 43.9896 117.75 44.1208C117.816 44.1864 117.882 44.1864 117.947 44.1864C118.21 44.3177 118.472 44.3833 118.734 44.5145C118.8 44.5801 118.931 44.5801 118.997 44.5801C119.259 44.6457 119.456 44.7114 119.653 44.777C119.719 44.777 119.784 44.8426 119.85 44.8426H119.915V83.9481C119.915 84.9979 120.768 85.851 121.818 85.851C122.868 85.851 123.72 84.9979 123.72 83.9481V43.2022V2.45637C123.72 1.73462 123.327 1.07852 122.671 0.750455ZM119.915 40.9058C117.291 39.9872 112.83 36.969 112.83 26.8645C112.83 17.0881 116.897 10.4612 119.915 6.91807V40.9058Z" fill="#3D3935"/>
</svg>
