<svg width="110" height="105" viewBox="0 0 110 105" fill="none" xmlns="http://www.w3.org/2000/svg">
<path d="M59.8119 100.665H54.8259V42.4001H83.2334V49.6832C83.2334 50.733 84.0862 51.5859 85.1359 51.5859C86.1856 51.5859 87.0386 50.733 87.0386 49.6832V42.4001H89.7284C90.7781 42.4001 91.631 41.5471 91.631 40.4973V24.422C91.631 23.3722 90.7781 22.5192 89.7284 22.5192H58.8935C59.6151 22.1912 60.2713 21.7975 60.9273 21.4038C63.5516 19.7635 65.3229 17.0077 65.7166 14.0551C66.0446 11.4306 65.3229 8.93726 63.6171 7.03447C61.9114 5.13169 59.484 4.2131 56.9254 4.47556C53.8419 4.80362 50.824 6.77203 49.1182 9.65902C48.0685 11.365 47.15 13.7926 46.4283 16.1547C45.5098 12.1523 44.1977 7.62501 42.6887 5.00048C41.0486 2.1791 37.9652 0.341942 34.3568 0.145102C30.158 -0.117352 26.2216 1.78541 23.7286 5.19731C21.6292 8.01868 21.0387 11.6274 22.0884 15.0393C23.1381 18.4512 25.6312 21.1414 29.0427 22.6505H2.53779C1.48809 22.6505 0.635254 23.5035 0.635254 24.5533V40.6285C0.635254 41.6783 1.48809 42.5313 2.53779 42.5313H5.29324C5.29324 42.6626 5.22767 42.7938 5.22767 42.925V102.699C5.22767 103.749 6.0805 104.602 7.1302 104.602H60.0089C61.0586 104.602 61.9114 103.749 61.9114 102.699C61.9114 101.649 60.8616 100.665 59.8119 100.665ZM87.7602 26.2592V38.5289H54.7603V26.2592H87.7602ZM52.2017 11.5618C53.317 9.65903 55.2196 8.41236 57.1222 8.21552C57.2534 8.21552 57.4501 8.21552 57.5814 8.21552C58.4998 8.21552 59.6808 8.47796 60.6649 9.59339C61.9114 10.9713 61.977 12.4804 61.8458 13.5302C61.5834 15.3674 60.4681 17.139 58.7623 18.1888C56.0069 19.9603 51.4801 21.207 48.5278 21.9287C49.3151 18.9105 50.6928 14.1863 52.2017 11.5618ZM25.4999 13.7926C24.8439 11.5618 25.2375 9.19972 26.6152 7.29693C28.2554 5.06608 30.8141 3.75381 33.5039 3.75381C33.6351 3.75381 33.832 3.75381 33.9632 3.75381C36.2594 3.88503 38.2276 5.00049 39.2773 6.70644C41.3111 10.1839 42.9512 18.0575 43.7385 22.0599C40.7206 21.6663 35.4065 20.7477 30.9453 19.1074C28.1898 18.2544 26.2216 16.2859 25.4999 13.7926ZM37.1778 100.665H8.77036V42.7938C8.77036 42.6626 8.77039 42.5313 8.70478 42.4001H37.1123V100.665H37.1778ZM37.1778 38.5945H4.17794V26.3248H37.1778V38.5945ZM51.0207 100.665H41.0486V26.2592H51.0207V100.665Z" fill="#3D3935"/>
<path d="M108.097 63.8559H99.2406C99.3062 63.7903 99.3718 63.7247 99.4374 63.6591C102.915 60.5753 103.243 55.9823 100.225 52.636C97.2068 49.2242 92.6144 49.0273 89.1372 52.1111C87.4315 53.6202 86.2506 55.7199 85.3321 57.8195C84.5448 55.7199 83.364 53.6202 81.7238 52.1111C79.9525 50.5364 77.9186 49.8146 75.8192 49.9459C73.8511 50.0771 72.0141 51.0613 70.6364 52.636C69.2587 54.2108 68.4714 56.1791 68.6026 58.0819C68.6682 60.1815 69.6523 62.0844 71.4236 63.6591C71.4893 63.7247 71.5548 63.7903 71.6205 63.8559H62.1076C61.0579 63.8559 60.2051 64.7089 60.2051 65.7587V79.5375C60.2051 80.5873 61.0579 81.4403 62.1076 81.4403H62.5012V102.502C62.5012 103.552 63.3542 104.405 64.4039 104.405H105.801C106.851 104.405 107.704 103.552 107.704 102.502V81.4403H108.097C109.147 81.4403 110 80.5873 110 79.5375V65.7587C109.934 64.7089 109.147 63.8559 108.097 63.8559ZM91.6303 54.9981C92.6144 54.1452 93.5985 53.7515 94.4514 53.7515C95.6323 53.7515 96.6163 54.342 97.338 55.195C98.5845 56.6385 99.175 58.8693 96.8788 60.9033C94.5826 62.9373 90.2526 63.6591 87.366 63.8559C88.022 61.0345 89.3341 57.0321 91.6303 54.9981ZM73.4574 55.195C74.1791 54.342 75.1632 53.8827 76.0817 53.7515C76.1473 53.7515 76.2129 53.7515 76.3441 53.7515C77.3282 53.7515 78.2467 54.1452 79.1652 54.9981C81.4614 57.0321 82.5111 61.1002 82.9704 63.8559C80.4773 63.6591 76.3441 63.0685 73.9167 60.9033C72.9326 60.0503 72.4077 59.0005 72.3421 58.0163C72.2765 56.9665 72.6701 56.0479 73.4574 55.195ZM78.5747 100.665H66.3064V81.4403H78.5747V100.665ZM78.5747 77.7003H64.4039H64.0101V67.7271H78.5747V77.7003ZM90.0557 100.665H82.3798V67.6615H84.2168C84.6104 67.6615 84.9385 67.6615 85.0697 67.6615C85.2009 67.6615 85.5289 67.6615 85.9882 67.6615H90.0557V100.665ZM103.899 100.665H93.9266V81.4403H103.899V100.665ZM106.195 77.7003H105.801H93.9266V67.7271H106.195V77.7003Z" fill="#3D3935"/>
</svg>
