<svg width="484" height="142" viewBox="0 0 484 142" fill="none" xmlns="http://www.w3.org/2000/svg">
<path d="M356.446 6.70665V2.9326H364.119C365.796 2.9326 366.634 3.5616 366.634 4.86155C366.634 6.07763 365.838 6.70665 364.244 6.70665H356.446ZM353.846 0.542378V13.9612H356.488V9.013H364.286C365.922 9.013 367.18 8.63559 368.06 7.92271C368.941 7.16791 369.402 6.1615 369.402 4.77768C369.402 3.47773 368.982 2.4294 368.144 1.67459C367.305 0.919784 366.173 0.500435 364.748 0.500435H353.846V0.542378ZM348.018 0.542378H345.376V9.05493C345.376 11.0258 343.657 12.0322 340.219 12.0322C336.739 12.0322 335.02 11.0258 335.02 9.05493V0.542378H332.378V9.55814C332.378 10.9839 333.091 12.1161 334.517 13.0386C335.942 13.9192 337.829 14.3805 340.219 14.3805C342.609 14.3805 344.496 13.9192 345.88 13.0386C347.305 12.158 348.018 10.9839 348.018 9.55814V0.542378ZM323.07 10.6903C321.938 11.571 320.471 12.0322 318.626 12.0322C316.781 12.0322 315.271 11.571 314.181 10.6903C313.049 9.80973 312.504 8.6356 312.504 7.20985C312.504 5.82603 313.091 4.69382 314.223 3.81321C315.355 2.89066 316.865 2.47133 318.668 2.47133C320.471 2.47133 321.938 2.9326 323.07 3.81321C324.202 4.69382 324.789 5.86796 324.789 7.25177C324.747 8.67752 324.16 9.80973 323.07 10.6903ZM324.621 1.92618C322.944 0.710105 320.974 0.123047 318.626 0.123047C316.278 0.123047 314.265 0.710105 312.63 1.92618C310.743 3.31 309.779 5.07122 309.779 7.25177C309.779 9.47426 310.701 11.2774 312.588 12.6193C314.223 13.7935 316.194 14.3805 318.626 14.3805C321.016 14.3805 323.028 13.7935 324.621 12.6193C326.508 11.2355 327.431 9.43233 327.431 7.25177C327.473 5.07122 326.508 3.31 324.621 1.92618ZM292.546 6.70665V2.9326H300.219C301.896 2.9326 302.734 3.5616 302.734 4.86155C302.734 6.07763 301.938 6.70665 300.345 6.70665H292.546ZM302.106 8.88719C304.328 8.38398 305.46 7.04211 305.46 4.81962C305.46 3.51968 305.041 2.47133 304.202 1.71652C303.363 0.961711 302.231 0.542378 300.806 0.542378H289.946V13.9612H292.588V9.013H299.254L302.776 13.9612H305.795L302.106 8.88719ZM275.564 6.6647V9.013H281.602C280.68 11.0258 278.877 12.0322 276.11 12.0322C274.265 12.0322 272.797 11.571 271.665 10.6903C270.533 9.80973 269.988 8.63559 269.988 7.25177C269.988 5.86796 270.575 4.73576 271.707 3.85515C272.839 2.97454 274.307 2.51327 276.11 2.51327C278.122 2.51327 279.799 3.1842 281.183 4.48415L283.657 3.26808C281.686 1.17139 279.254 0.123047 276.277 0.123047C273.803 0.123047 271.749 0.710105 270.114 1.92618C268.227 3.31 267.304 5.07122 267.304 7.25177C267.304 9.47426 268.227 11.2774 270.114 12.6193C271.749 13.7935 273.72 14.3805 276.11 14.3805C278.751 14.3805 280.889 13.7096 282.483 12.3677C284.076 11.0258 284.873 9.26461 284.873 7.08405V6.6647H275.564ZM254.977 2.17779C253.09 0.877846 250.659 0.2069 247.598 0.2069C245.334 0.2069 243.573 0.584306 242.315 1.33911C241.057 2.09392 240.428 3.10033 240.428 4.40028C240.428 5.44862 240.805 6.2873 241.602 6.83244C242.399 7.37758 243.614 7.75498 245.292 7.92271C245.711 7.96465 246.843 8.04853 248.73 8.1324C249.904 8.17433 250.784 8.30012 251.371 8.46786C252.378 8.76139 252.881 9.2646 252.881 9.97748C252.881 10.6065 252.462 11.1097 251.623 11.529C250.784 11.9064 249.61 12.1161 248.101 12.1161C245.417 12.1161 243.153 11.4871 241.266 10.1871L239.841 12.0322C241.895 13.5838 244.663 14.3805 248.101 14.3805C250.533 14.3805 252.42 14.0031 253.719 13.2064C255.019 12.4096 255.648 11.3194 255.648 9.85168C255.648 8.55173 255.145 7.62919 254.097 7.00018C253.174 6.41311 251.581 6.03569 249.401 5.82603C247.891 5.70022 246.34 5.5325 244.83 5.40669C243.698 5.19703 243.153 4.81962 243.153 4.19061C243.153 3.14227 244.663 2.59712 247.64 2.59712C249.694 2.59712 251.581 3.0584 253.342 3.98095L254.977 2.17779ZM224.746 8.76139L227.975 2.80681L231.162 8.76139H224.746ZM229.61 0.542378H226.34L219.002 13.9612H221.895L223.447 11.0677H232.461L234.013 13.9612H236.906L229.61 0.542378ZM207.262 6.6647V9.013H213.3C212.377 11.0258 210.574 12.0322 207.807 12.0322C205.962 12.0322 204.495 11.571 203.363 10.6903C202.23 9.80973 201.685 8.63559 201.685 7.25177C201.685 5.86796 202.272 4.73576 203.405 3.85515C204.537 2.93261 206.004 2.51327 207.807 2.51327C209.82 2.51327 211.497 3.1842 212.88 4.48415L215.354 3.26808C213.384 1.17139 210.952 0.123047 207.975 0.123047C205.501 0.123047 203.446 0.710105 201.811 1.92618C199.924 3.31 199.002 5.07122 199.002 7.25177C199.002 9.47426 199.924 11.2774 201.811 12.6193C203.446 13.7935 205.417 14.3805 207.807 14.3805C210.449 14.3805 212.587 13.7096 214.18 12.3677C215.774 11.0258 216.57 9.26461 216.57 7.08405V6.6647H207.262ZM190.323 10.6903C189.191 11.571 187.723 12.0322 185.878 12.0322C184.033 12.0322 182.524 11.571 181.434 10.6903C180.302 9.80973 179.757 8.6356 179.757 7.20985C179.757 5.82603 180.343 4.69382 181.476 3.81321C182.608 2.89066 184.117 2.47133 185.92 2.47133C187.723 2.47133 189.191 2.9326 190.323 3.81321C191.455 4.69382 192.042 5.86796 192.042 7.25177C191.958 8.67752 191.413 9.80973 190.323 10.6903ZM191.874 1.92618C190.197 0.710105 188.226 0.123047 185.878 0.123047C183.53 0.123047 181.518 0.710105 179.882 1.92618C177.995 3.31 177.031 5.07122 177.031 7.25177C177.031 9.47426 177.954 11.2774 179.84 12.6193C181.476 13.7935 183.446 14.3805 185.878 14.3805C188.268 14.3805 190.281 13.7935 191.874 12.6193C193.761 11.2355 194.683 9.43233 194.683 7.25177C194.725 5.07122 193.761 3.31 191.874 1.92618ZM173.886 0.542378H158.415V2.89067H164.83V13.9612H167.471V2.89067H173.886V0.542378ZM145.417 0.542378L139.672 6.6647L133.928 0.542378H130.741L138.331 8.67752V13.9612H140.972V8.67752L148.603 0.542378H145.417ZM114.683 11.6548V8.38399H123.194C124.787 8.38399 125.584 8.97106 125.584 10.1033C125.584 10.5645 125.374 10.9419 124.913 11.2355C124.452 11.529 123.823 11.6548 122.985 11.6548H114.683ZM114.683 6.03571V2.9326H123.236C124.494 2.9326 125.123 3.43581 125.123 4.44222C125.123 4.94542 124.955 5.32282 124.578 5.61636C124.2 5.9099 123.739 6.03571 123.11 6.03571H114.683ZM127.681 4.31642C127.681 3.18421 127.261 2.3036 126.465 1.59072C125.668 0.919782 124.536 0.542378 123.11 0.542378H112.041V13.9612H122.943C126.465 13.9612 128.226 12.7451 128.226 10.3549C128.226 8.8872 127.513 7.75498 126.087 7.04211C127.177 6.37117 127.681 5.44864 127.681 4.31642Z" fill="#3D3935"/>
<path d="M479.34 52.5816V51.3236H478.082V50.0656H476.824V48.8076H475.566V47.5496H474.308V46.2916H473.05V45.0336H471.793V43.7756H470.535V42.5176H469.277V41.2595H468.019V40.0015H466.761V38.7435H465.503V37.4855H462.568H442.316C434.308 37.4855 427.222 41.5531 423.071 47.7593V47.3819H421.813V46.1239H420.555V44.8658H419.297V43.6078H418.039V42.3498H416.782V41.0918H415.524V39.8338H414.266V38.5758H413.008V37.3178H410.073H400.178H398.291L397.494 38.9951L393.092 48.4302H392.043V47.1722H390.786V45.9142H389.528V44.6562H388.27V43.3982H387.012V42.1401H385.754V40.8821H384.496V39.6241H383.238V38.3661H381.98V37.1081H379.045H369.318H366.383V40.0435V55.6848C366.131 55.4332 365.922 55.2235 365.67 54.9719C365.293 54.5525 364.873 54.1332 364.412 53.7139C364.035 53.2945 363.616 52.8752 363.154 52.4558C362.777 52.0365 362.358 51.6172 361.896 51.1978C361.519 50.7785 361.1 50.3592 360.639 49.9398C360.261 49.5205 359.842 49.1012 359.381 48.6818C359.003 48.2625 358.584 47.8431 358.123 47.4238C357.745 47.0045 357.326 46.5851 356.865 46.1658C356.488 45.7464 356.068 45.3271 355.607 44.9078C355.23 44.4884 354.81 44.0691 354.349 43.6498C353.972 43.2304 353.553 42.8111 353.091 42.3918C348.857 37.821 342.819 34.9695 336.11 34.9695C332.923 34.9695 329.737 35.6404 326.844 36.8984H325.544H315.816H312.881V39.8338V56.1041C312.839 56.0622 312.797 56.0202 312.756 56.0202C312.378 55.6009 311.959 55.1815 311.498 54.7622C311.12 54.3429 310.701 53.9235 310.24 53.5042C309.862 53.0848 309.443 52.6655 308.982 52.2462C308.605 51.8268 308.185 51.4075 307.724 50.9882C307.347 50.5688 306.927 50.1495 306.466 49.7302C306.089 49.3108 305.67 48.8915 305.208 48.4721C304.831 48.0528 304.412 47.6335 303.95 47.2141C303.573 46.7948 303.154 46.3755 302.693 45.9561C302.315 45.5368 301.896 45.1174 301.435 44.6981C301.057 44.2788 300.638 43.8594 300.177 43.4401C299.799 43.0208 299.38 42.6014 298.919 42.1821C294.684 37.6113 288.646 34.7598 281.938 34.7598C274.349 34.7598 267.556 38.45 263.363 44.111H262.525V42.853H261.267V41.595H260.009V40.337H258.751V39.079H257.493V37.821H256.235V36.5629H253.3H212.797H209.862V39.4983V49.227V50.4011C209.568 50.1076 209.275 49.814 208.981 49.5205C208.604 49.1011 208.184 48.6818 207.723 48.2625C207.346 47.8431 206.927 47.4238 206.465 47.0045C206.088 46.5851 205.669 46.1658 205.207 45.7464C204.83 45.3271 204.411 44.9078 203.95 44.4885C203.572 44.0691 203.153 43.6498 202.692 43.2304C202.314 42.8111 201.895 42.3917 201.434 41.9724C197.199 37.4016 191.161 34.5501 184.453 34.5501C178.037 34.5501 172.209 37.192 167.974 41.4273H167.723L168.939 40.1692H166.507L167.723 38.9113H165.291L166.507 37.6532H164.075L165.291 36.3952H158.331H144.788H143.572L142.691 37.2758L135.06 45.0755V45.0336H133.802V43.7756H132.544V42.5176H131.287V41.2595H130.029V40.0015H128.771V38.7435H127.513V37.4855H126.255V36.2275H123.32H113.592H110.657V39.1628V54.8041C110.406 54.5525 110.196 54.3429 109.945 54.0912C109.567 53.6719 109.148 53.2526 108.687 52.8333C108.309 52.4139 107.89 51.9946 107.429 51.5752C107.052 51.1559 106.632 50.7366 106.171 50.3172C105.794 49.8979 105.374 49.4786 104.913 49.0592C104.536 48.6399 104.116 48.2205 103.655 47.8012C103.278 47.3819 102.859 46.9625 102.397 46.5432C102.02 46.1239 101.601 45.7045 101.14 45.2852C100.762 44.8658 100.343 44.4465 99.8817 44.0272C99.5043 43.6078 99.085 43.1885 98.6238 42.7692C98.2464 42.3498 97.8271 41.9305 97.3659 41.5111C93.1311 36.9403 87.0933 34.0889 80.3846 34.0889C70.7409 34.0889 62.4809 40.0015 58.9589 48.3883H58.7073V47.1303H57.4495V45.8722H56.1916V44.6142H54.9337V43.3562H53.6758V42.0982H52.4179V40.8402H51.1601V39.5822H49.9022V38.3242H48.6443V37.0662H47.3865V35.8081H44.4514H36.3591H34.4723L33.6757 37.4855L7.51192 93.5509H3.78024H0.845215V96.4863V113.889V116.824H2.10307V118.082H3.36095V119.34H4.61881V120.598H5.87669V121.856H7.13457V123.114H8.39243V124.372H9.65031V125.63H10.9082V126.888H12.1661V128.146H13.4239V129.404H14.6818V130.662H15.9397V131.92H18.8747H28.6022H31.5373V128.985V124.204H45.1223V124.498H46.3802V125.756H47.638V127.014H48.8959V128.272H50.1538V129.53H51.4117V130.788H52.6695V132.046H55.6046H65.3321H68.2671V129.111V111.708V108.773H67.0093V107.515H65.7514V106.257H64.4935V104.999H64.3677V102.818C65.0386 103.657 65.7933 104.454 66.59 105.167C66.9674 105.586 67.3866 106.005 67.8478 106.425C68.2252 106.844 68.6445 107.263 69.1057 107.683C69.4831 108.102 69.9024 108.521 70.3636 108.941C70.741 109.36 71.1602 109.779 71.6215 110.199C71.9988 110.618 72.4181 111.037 72.8794 111.457C73.2567 111.876 73.676 112.295 74.1372 112.715C74.5146 113.134 74.9339 113.553 75.3951 113.973C75.7725 114.392 76.1917 114.811 76.6529 115.231C77.0303 115.65 77.4496 116.069 77.9108 116.489C78.2882 116.908 78.7075 117.327 79.1687 117.747C79.5461 118.166 79.9653 118.585 80.4266 119.005C84.6614 123.575 90.6992 126.427 97.4079 126.427C105.961 126.427 113.592 121.647 117.618 114.56V114.602H118.876V115.86H120.133V117.118H121.391V118.376H122.649V119.634H123.907V120.892H125.165V122.15H126.423V123.408H127.681V124.666H130.616H140.343H143.278V121.73V107.473L144.704 108.941L145.584 109.821H145.626L145.962 110.157L146.842 111.037H146.884L147.22 111.373L148.1 112.253H148.142L148.477 112.589L149.358 113.469H149.4L149.735 113.805L150.616 114.686H150.658L150.993 115.021L151.874 115.902H151.916L152.251 116.237L153.132 117.118H153.173L153.509 117.453L154.389 118.334H154.431L154.767 118.669L155.647 119.55H155.689L156.025 119.885L156.905 120.766H156.947L157.283 121.101L158.163 121.982H158.205L158.54 122.317L159.421 123.198H159.463L159.798 123.534L160.679 124.414H161.895H175.438H182.398L177.534 119.424L146.633 87.7221L163.572 70.3616V88.2673C163.572 94.9767 166.423 101.015 170.993 105.25C171.371 105.67 171.79 106.089 172.251 106.508C172.629 106.928 173.048 107.347 173.509 107.766C173.886 108.186 174.306 108.605 174.767 109.024C175.144 109.444 175.564 109.863 176.025 110.282C176.402 110.702 176.821 111.121 177.283 111.541C177.66 111.96 178.079 112.379 178.541 112.798C178.918 113.218 179.337 113.637 179.798 114.057C180.176 114.476 180.595 114.895 181.056 115.315C181.434 115.734 181.853 116.153 182.314 116.573C182.692 116.992 183.111 117.411 183.572 117.831C183.949 118.25 184.369 118.669 184.83 119.089C189.065 123.659 195.103 126.511 201.811 126.511C214.6 126.511 224.998 116.111 224.998 103.321V72.5002C224.998 68.6842 224.076 65.036 222.398 61.849H223.405V63.107H224.663V64.365H225.92V65.623H227.178V66.8811H227.723V106.886V109.821H228.981V111.079H230.239V112.337H231.497V113.595H232.755V114.853H234.013V116.111H235.271V117.369H236.529V118.627H237.786V119.885H239.044V121.143H240.302V122.401H241.56V123.659H242.818V124.917H245.753H255.48H258.415V121.982V68.181H261.434V89.8188C261.434 96.5282 264.286 102.567 268.856 106.802C269.233 107.221 269.652 107.641 270.114 108.06C270.491 108.479 270.91 108.899 271.372 109.318C271.749 109.737 272.168 110.157 272.629 110.576C273.007 110.995 273.426 111.415 273.887 111.834C274.265 112.253 274.684 112.673 275.145 113.092C275.522 113.511 275.942 113.931 276.403 114.35C276.78 114.769 277.2 115.189 277.661 115.608C278.038 116.027 278.458 116.447 278.919 116.866C279.296 117.285 279.715 117.705 280.177 118.124C280.554 118.543 280.973 118.963 281.435 119.382C281.812 119.801 282.231 120.221 282.692 120.64C286.927 125.211 292.965 128.062 299.674 128.062C305.753 128.062 311.372 125.63 315.565 121.73V123.03V125.966H316.823V127.224H318.081V128.482H319.338V129.74H320.596V130.998H321.854V132.256H323.112V133.514H324.37V134.772H325.628V136.03H326.886V137.288H328.143V138.546H329.401V139.804H330.659V141.062H333.594H343.322H346.257V138.126V127.056C348.689 127.895 351.246 128.356 353.888 128.356C362.567 128.356 370.115 123.575 374.098 116.531H375.314V117.789H376.572V119.047H377.829V120.305H379.087V121.563H380.345V122.821H381.603V124.079H382.861V125.337H384.119V126.595H387.054H396.949H398.836L399.633 124.917L404.035 115.482H405.083V116.74H406.341V117.998H407.599V119.256H408.857V120.514H410.115V121.772H411.373V123.03H412.631V124.288H413.888V125.546H415.146V126.804H418.081H427.809H430.744V123.869V119.382H432.086L431.583 120.64H433.302L432.798 121.898H434.518L434.014 123.156H435.733L435.23 124.414H436.949L436.446 125.672H438.165L437.662 126.93H441.981H452.463H454.476L455.189 125.085L458.375 117.034H458.753V118.292H460.01V119.55H461.268V120.808H462.526V122.066H463.784V123.324H465.042V124.582H466.3V125.84H467.558V127.098H470.493H480.22H483.155V124.163V55.517V52.5816H479.34ZM344.16 73.8421C344.16 73.0034 344.286 72.2066 344.538 71.4518V89.8188C344.538 90.6575 344.412 91.4542 344.16 92.209V73.8421ZM313.72 97.1572V97.0314H313.762L313.72 97.1572ZM428.27 79.4612C428.606 79.7966 428.941 80.1321 429.276 80.4676C429.654 80.8869 430.073 81.3063 430.534 81.7256C430.912 82.103 431.247 82.4804 431.666 82.8578L428.312 91.3703V79.4612H428.27ZM192.922 73.8421C192.922 73.0034 193.048 72.2066 193.3 71.4518V89.8188C193.3 90.6575 193.174 91.4542 192.922 92.209V73.8421ZM219.631 60.7587C219.673 60.7587 219.631 60.7587 219.631 60.7587V60.7587ZM220.428 61.9748H220.889V62.7715C220.763 62.5199 220.595 62.2264 220.428 61.9748ZM428.27 117.285H428.396L428.27 117.579V117.285Z" fill="#3D3935"/>
<path d="M40.3414 115.859V108.143H13.4648V115.859H3.7373V98.4561H9.35581L36.3162 40.6714H46.2114V98.4561H50.0689V115.859H40.3414ZM36.4839 98.4561V63.3156L20.0896 98.4561H36.4839Z" fill="white"/>
<path d="M46.212 40.6717V98.4564H50.0695V115.859H40.3419V108.143H13.4654V115.859H3.73781V98.4564H9.35633L36.3167 40.6717H46.212ZM20.0902 98.4564H36.4845V63.3159L20.0902 98.4564ZM49.147 37.7363H46.212H36.3586H34.4718L33.6752 39.4137L7.51144 95.4791H3.77975H0.844727V98.4144V115.817V118.752H3.77975H13.5073H16.4423V115.817V111.037H37.4488V115.817V118.752H40.3839H50.1114H53.0464V115.817V98.4144V95.4791H50.1114H49.189V40.6717V37.7363H49.147ZM24.7024 95.521L33.5494 76.5251V95.521H24.7024Z" fill="#3D3935"/>
<path d="M146.004 108.143L124.704 86.3373V108.143H114.976V40.6714H124.704V62.4769L146.004 40.6714H159.547L126.632 74.4281L159.547 108.143H146.004Z" fill="white"/>
<path d="M159.547 40.6716L126.632 74.4283L159.547 108.185H146.004L124.704 86.3795V108.185H114.976V40.6716H124.704V62.4772L146.004 40.6716H159.547ZM166.465 37.7363H159.505H145.962H144.746L143.865 38.6169L127.597 55.2646V40.6297V37.6943H124.662H114.934H111.999V40.6297V108.101V111.036H114.934H124.662H127.597V108.101V93.4662L143.865 110.114L144.746 110.995H145.962H159.505H166.465L161.601 106.004L130.699 74.4283L161.601 42.7264L166.465 37.7363Z" fill="#3D3935"/>
<path d="M185.668 110.072C174.515 110.072 165.417 100.972 165.417 89.818V58.9967C165.417 47.8423 174.515 38.7427 185.668 38.7427C196.821 38.7427 205.92 47.8423 205.92 58.9967V89.818C205.962 101.014 196.863 110.072 185.668 110.072ZM185.668 48.4713C179.84 48.4713 175.102 53.2098 175.102 59.0386V89.8599C175.102 95.6887 179.84 100.427 185.668 100.427C191.496 100.427 196.234 95.6887 196.234 89.8599V59.0386C196.234 53.2098 191.496 48.4713 185.668 48.4713Z" fill="white"/>
<path d="M185.668 38.743C196.821 38.743 205.92 47.8426 205.92 58.997V89.8183C205.92 100.973 196.821 110.072 185.668 110.072C174.515 110.072 165.416 100.973 165.416 89.8183V58.997C165.416 47.8426 174.515 38.743 185.668 38.743ZM185.668 100.386C191.496 100.386 196.234 95.6471 196.234 89.8183V58.997C196.234 53.1682 191.496 48.4297 185.668 48.4297C179.84 48.4297 175.102 53.1682 175.102 58.997V89.8183C175.144 95.6471 179.882 100.386 185.668 100.386ZM185.668 35.8076C172.88 35.8076 162.481 46.2072 162.481 58.997V89.8183C162.481 102.608 172.88 113.008 185.668 113.008C198.457 113.008 208.855 102.608 208.855 89.8183V58.997C208.855 46.2072 198.457 35.8076 185.668 35.8076ZM185.668 97.4503C181.475 97.4503 178.037 94.0536 178.037 89.8183V58.997C178.037 54.8036 181.433 51.3651 185.668 51.3651C189.903 51.3651 193.299 54.7617 193.299 58.997V89.8183C193.299 94.0117 189.861 97.4503 185.668 97.4503Z" fill="#3D3935"/>
<path d="M229.316 108.143V50.4H213.928V40.6714H254.473V50.4H239.043V108.143H229.316Z" fill="white"/>
<path d="M254.474 40.6717V50.4003H239.086V108.185H229.358V50.4003H213.97V40.6717H254.474ZM257.367 37.7363H254.432H213.928H210.993V40.6717V50.4003V53.3357H213.928H226.381V108.185V111.12H229.316H239.044H241.979V108.185V53.3357H254.432H257.367V50.4003V40.6717V37.7363Z" fill="#3D3935"/>
<path d="M400.764 108.143V63.3156L379.841 108.143H369.946V40.6714H379.673V85.5405L400.596 40.6714H410.491V108.143H400.764Z" fill="white"/>
<path d="M410.492 40.6716V108.143H400.764V63.2739L379.841 108.143H369.946V40.6716H379.674V85.5408L400.596 40.6716H410.492ZM413.427 37.7363H410.492H400.596H398.71L397.913 39.4136L382.567 72.2897V40.6297V37.6943H379.632H369.904H366.969V40.6297V108.101V111.036H369.904H379.8H381.686L382.483 109.359L397.829 76.4831V108.143V111.078H400.764H410.492H413.427V108.143V40.6716V37.7363Z" fill="#3D3935"/>
<path d="M453.091 108.143V81.1794H445.838L435.23 108.143H424.747L435.858 80.0472C427.766 77.2376 422.273 69.6896 422.273 60.9254C422.273 49.771 431.372 40.6714 442.525 40.6714H462.777V108.143H453.091ZM442.567 50.4C436.739 50.4 432.001 55.1385 432.001 60.9673C432.001 66.7961 436.739 71.5346 442.567 71.5346H453.133V50.442H442.567V50.4Z" fill="white"/>
<path d="M462.819 40.6717V108.143H453.091V81.1797H445.838L435.23 108.143H424.747L435.859 80.0475C427.766 77.2379 422.273 69.6899 422.273 60.9257C422.273 49.7713 431.372 40.6717 442.525 40.6717H462.819ZM442.567 71.493H453.133V50.4003H442.567C436.739 50.4003 432.001 55.1388 432.001 60.9676C432.001 66.7964 436.739 71.493 442.567 71.493ZM465.754 37.7363H462.819H442.567C429.779 37.7363 419.38 48.1359 419.38 60.9257C419.38 69.7737 424.37 77.7831 432.085 81.641L422.022 107.053L420.429 111.078H424.747H435.23H437.242L437.955 109.233L447.85 84.1151H450.156V108.143V111.078H453.091H462.819H465.754V108.143V40.6717V37.7363ZM442.567 68.5576C438.374 68.5576 434.936 65.161 434.936 60.9257C434.936 56.6904 438.332 53.2938 442.567 53.2938H450.198V68.5157H442.567V68.5576Z" fill="#3D3935"/>
<path d="M316.697 122.82V40.6716H326.424V41.72C329.569 39.791 333.217 38.7427 336.99 38.7427C348.144 38.7427 357.242 47.8423 357.242 58.9967V89.818C357.242 100.972 348.144 110.072 336.99 110.072C333.217 110.072 329.611 109.024 326.424 107.095V122.778H316.697V122.82ZM336.949 48.4713C331.12 48.4713 326.382 53.2098 326.382 59.0386V89.8599C326.382 95.6887 331.12 100.427 336.949 100.427C342.777 100.427 347.515 95.6887 347.515 89.8599V59.0386C347.473 53.2098 342.735 48.4713 336.949 48.4713Z" fill="white"/>
<path d="M336.948 38.743C348.102 38.743 357.2 47.8426 357.2 58.997V89.8183C357.2 100.973 348.102 110.072 336.948 110.072C333.175 110.072 329.569 109.024 326.382 107.095V122.778H316.655V40.6719H326.382V41.7203C329.527 39.7913 333.175 38.743 336.948 38.743ZM336.948 100.386C342.777 100.386 347.515 95.6471 347.515 89.8183V58.997C347.515 53.1682 342.777 48.4297 336.948 48.4297C331.12 48.4297 326.382 53.1682 326.382 58.997V89.8183C326.382 95.6471 331.12 100.386 336.948 100.386ZM336.948 35.8076C333.762 35.8076 330.575 36.4786 327.682 37.7366H326.382H316.655H313.72V40.6719V122.82V125.756H316.655H326.382H329.317V122.82V111.75C331.749 112.588 334.307 113.05 336.948 113.05C349.737 113.05 360.135 102.65 360.135 89.8603V59.0389C360.135 46.2072 349.737 35.8076 336.948 35.8076ZM336.948 97.4503C332.755 97.4503 329.317 94.0536 329.317 89.8183V58.997C329.317 54.8036 332.714 51.3651 336.948 51.3651C341.183 51.3651 344.58 54.7617 344.58 58.997V89.8183C344.538 94.0117 341.141 97.4503 336.948 97.4503Z" fill="#3D3935"/>
<path d="M92.3757 91.4114C91.5791 96.4854 87.2185 100.343 81.9773 100.343C76.1492 100.343 71.4112 95.6048 71.4112 89.776V79.2087H102.229V58.9547C102.229 47.8003 93.1305 38.7007 81.9773 38.7007C70.8242 38.7007 61.7256 47.8003 61.7256 58.9547V89.776C61.7256 100.93 70.8242 110.03 81.9773 110.03C92.6273 110.03 101.349 101.811 102.145 91.3695H92.3757V91.4114ZM71.4112 58.9966C71.4112 53.1678 76.1492 48.4293 81.9773 48.4293C87.8055 48.4293 92.5434 53.1678 92.5434 58.9966V69.5639H71.4531V58.9966H71.4112Z" fill="white"/>
<path d="M81.9773 38.743C93.1304 38.743 102.229 47.8426 102.229 58.997V79.251H71.4111V89.8183C71.4111 95.6471 76.1491 100.386 81.9773 100.386C87.2603 100.386 91.6209 96.4858 92.3757 91.4537H102.145C101.307 101.895 92.5853 110.114 81.9773 110.114C70.8242 110.114 61.7255 101.015 61.7255 89.8603V59.0389C61.6836 47.8426 70.7822 38.743 81.9773 38.743ZM71.4111 69.5643H92.5014V58.997C92.5014 53.1682 87.7635 48.4297 81.9353 48.4297C76.1072 48.4297 71.3692 53.1682 71.3692 58.997V69.5643H71.4111ZM81.9773 35.8076C69.1889 35.8076 58.7905 46.2072 58.7905 58.997V89.8183C58.7905 102.608 69.1889 113.008 81.9773 113.008C93.969 113.008 104.116 103.615 105.08 91.6634L105.332 88.5184H102.145H92.3757H89.8599L89.4826 90.9925C88.8956 94.6826 85.667 97.4503 81.9773 97.4503C77.7844 97.4503 74.3462 94.0536 74.3462 89.8183V82.1864H102.229H105.164V79.251V58.997C105.164 46.2072 94.7656 35.8076 81.9773 35.8076ZM74.3462 66.629V58.997C74.3462 54.8036 77.7424 51.3651 81.9773 51.3651C86.1702 51.3651 89.6084 54.7617 89.6084 58.997V66.629H74.3462Z" fill="#3D3935"/>
<path d="M293.426 91.4114C292.629 96.4854 288.269 100.343 283.028 100.343C277.199 100.343 272.461 95.6048 272.461 89.776V79.2087H303.279V58.9547C303.279 47.8003 294.181 38.7007 283.028 38.7007C271.874 38.7007 262.776 47.8003 262.776 58.9547V89.776C262.776 100.93 271.874 110.03 283.028 110.03C293.678 110.03 302.399 101.811 303.195 91.3695H293.426V91.4114ZM272.461 58.9966C272.461 53.1678 277.199 48.4293 283.028 48.4293C288.856 48.4293 293.594 53.1678 293.594 58.9966V69.5639H272.503V58.9966H272.461Z" fill="white"/>
<path d="M283.028 38.743C294.181 38.743 303.279 47.8426 303.279 58.997V79.251H272.461V89.8183C272.461 95.6471 277.199 100.386 283.028 100.386C288.311 100.386 292.671 96.4858 293.426 91.4537H303.195C302.357 101.895 293.636 110.114 283.028 110.114C271.874 110.114 262.776 101.015 262.776 89.8603V59.0389C262.776 47.8426 271.874 38.743 283.028 38.743ZM272.461 69.5643H293.552V58.997C293.552 53.1682 288.814 48.4297 282.986 48.4297C277.157 48.4297 272.42 53.1682 272.42 58.997V69.5643H272.461ZM283.028 35.8076C270.239 35.8076 259.841 46.2072 259.841 58.997V89.8183C259.841 102.608 270.239 113.008 283.028 113.008C295.019 113.008 305.166 103.615 306.13 91.6634L306.382 88.5184H303.195H293.426H290.91L290.533 90.9925C289.946 94.6826 286.717 97.4503 283.028 97.4503C278.835 97.4503 275.396 94.0536 275.396 89.8183V82.1864H303.279H306.214V79.251V58.997C306.214 46.2072 295.816 35.8076 283.028 35.8076ZM275.396 66.629V58.997C275.396 54.8036 278.793 51.3651 283.028 51.3651C287.22 51.3651 290.659 54.7617 290.659 58.997V66.629H275.396Z" fill="#3D3935"/>
</svg>
